<?xml version="1.0" encoding="UTF-8" standalone="no"?>
<!-- Created with Inkscape (http://www.inkscape.org/) -->

<svg
   xmlns:dc="http://purl.org/dc/elements/1.1/"
   xmlns:cc="http://creativecommons.org/ns#"
   xmlns:rdf="http://www.w3.org/1999/02/22-rdf-syntax-ns#"
   xmlns:svg="http://www.w3.org/2000/svg"
   xmlns="http://www.w3.org/2000/svg"
   xmlns:sodipodi="http://sodipodi.sourceforge.net/DTD/sodipodi-0.dtd"
   xmlns:inkscape="http://www.inkscape.org/namespaces/inkscape"
   id="svg4056"
   version="1.1"
   inkscape:version="0.92.3 (2405546, 2018-03-11)"
   width="48"
   height="48"
   xml:space="preserve"
   sodipodi:docname="address_europass_icon.svg"><metadata
     id="metadata4062"><rdf:RDF><cc:Work
         rdf:about=""><dc:format>image/svg+xml</dc:format><dc:type
           rdf:resource="http://purl.org/dc/dcmitype/StillImage" /><dc:title /></cc:Work></rdf:RDF></metadata><defs
     id="defs4060" /><sodipodi:namedview
     pagecolor="#ffffff"
     bordercolor="#666666"
     borderopacity="1"
     objecttolerance="10"
     gridtolerance="10"
     guidetolerance="10"
     inkscape:pageopacity="0"
     inkscape:pageshadow="2"
     inkscape:window-width="1853"
     inkscape:window-height="1025"
     id="namedview4058"
     showgrid="false"
     inkscape:zoom="17.25"
     inkscape:cx="12.57971"
     inkscape:cy="24"
     inkscape:window-x="67"
     inkscape:window-y="27"
     inkscape:window-maximized="1"
     inkscape:current-layer="g4064" /><g
     id="g4064"
     inkscape:groupmode="layer"
     inkscape:label="mobile_icon"
     transform="matrix(1.25,0,0,-1.25,0,48.000001)"><path
       id="path5742"
       transform="matrix(2.834949,0,0,-2.834949,-1094.0482,648.96811)"
       style="color:#000000;fill:#1494cc;fill-opacity:1;stroke:none;stroke-width:4.90000009999999975;marker:none;visibility:visible;display:inline;overflow:visible;enable-background:accumulate"
       d="m 394.16782,219.67766 c 0,0.81766 -0.66284,1.4805 -1.4805,1.4805 -0.81766,0 -1.48051,-0.66284 -1.48051,-1.4805 0,-0.81766 0.66285,-1.48051 1.48051,-1.48051 0.81766,0 1.4805,0.66285 1.4805,1.48051 z m -1.48052,-4.141 c -2.53836,0 -4.57123,1.75846 -4.58996,3.90626 -0.006,0.67272 0.12511,1.2404 0.36966,1.8185 0.24243,0.5731 3.91225,7.244 3.91225,7.244 0.17057,0.32902 0.44554,0.32902 0.6161,0 0,0 3.63345,-6.6648 3.88144,-7.244 0.25212,-0.58884 0.40047,-1.2043 0.40047,-1.8185 0,-2.133 -2.0516,-3.90626 -4.58996,-3.90626 z" /><path
       style="fill:#666666;stroke-width:0.05797102"
       d="M 23.74353,47.342726 C 23.397249,47.242969 23.098993,46.854067 22.436113,45.637961 22.089308,45.00172 20.599601,42.276812 19.125652,39.582609 11.34969,25.369078 9.317724,21.544444 8.7570211,20.066427 7.6897241,17.253024 7.4722756,14.018303 8.1750202,11.408696 9.1177586,7.9078823 11.623721,4.8428169 15.177576,2.8438073 16.929831,1.8581806 19.135537,1.1258497 21.37261,0.78695332 c 1.12291,-0.17011069 3.978695,-0.18573278 5.056375,-0.02766 3.976108,0.58320988 7.216673,2.11173028 9.789051,4.61733158 2.843072,2.7692667 4.252324,6.2791621 3.985441,9.9261661 -0.163324,2.231843 -0.742568,4.306749 -1.781303,6.380786 -1.19724,2.390524 -5.287105,10.005331 -12.864487,23.952031 -0.68392,1.258801 -0.863893,1.505395 -1.215161,1.664973 -0.25898,0.117652 -0.321597,0.122058 -0.598996,0.04214 z m 1.311088,-26.924652 c 1.784373,-0.367677 3.321202,-1.698838 3.906145,-3.383402 0.278901,-0.803202 0.370779,-1.906191 0.225509,-2.707249 -0.292931,-1.615302 -1.356085,-3.04043 -2.815258,-3.773774 -0.713894,-0.358786 -1.258145,-0.491116 -2.146499,-0.521902 -1.270302,-0.044023 -2.170774,0.201208 -3.154185,0.859001 -1.708724,1.142946 -2.596737,3.199958 -2.264637,5.245854 0.340958,2.100464 1.995988,3.812352 4.145031,4.287433 0.490104,0.108345 1.563918,0.105303 2.103894,-0.006 z"
       id="path3806"
       inkscape:connector-curvature="0"
       transform="matrix(0.8,0,0,-0.8,0,38.400001)" /></g></svg>