<?xml version="1.0" encoding="UTF-8" standalone="no"?>
<!-- Created with Inkscape (http://www.inkscape.org/) -->

<svg
   xmlns:dc="http://purl.org/dc/elements/1.1/"
   xmlns:cc="http://creativecommons.org/ns#"
   xmlns:rdf="http://www.w3.org/1999/02/22-rdf-syntax-ns#"
   xmlns:svg="http://www.w3.org/2000/svg"
   xmlns="http://www.w3.org/2000/svg"
   xmlns:sodipodi="http://sodipodi.sourceforge.net/DTD/sodipodi-0.dtd"
   xmlns:inkscape="http://www.inkscape.org/namespaces/inkscape"
   id="svg4056"
   version="1.1"
   inkscape:version="0.92.3 (2405546, 2018-03-11)"
   width="48"
   height="48"
   xml:space="preserve"
   sodipodi:docname="mobile_europass_icon.svg"><metadata
     id="metadata4062"><rdf:RDF><cc:Work
         rdf:about=""><dc:format>image/svg+xml</dc:format><dc:type
           rdf:resource="http://purl.org/dc/dcmitype/StillImage" /><dc:title /></cc:Work></rdf:RDF></metadata><defs
     id="defs4060" /><sodipodi:namedview
     pagecolor="#ffffff"
     bordercolor="#666666"
     borderopacity="1"
     objecttolerance="10"
     gridtolerance="10"
     guidetolerance="10"
     inkscape:pageopacity="0"
     inkscape:pageshadow="2"
     inkscape:window-width="1853"
     inkscape:window-height="1025"
     id="namedview4058"
     showgrid="false"
     inkscape:zoom="20.40625"
     inkscape:cx="40.37242"
     inkscape:cy="45.114777"
     inkscape:window-x="67"
     inkscape:window-y="27"
     inkscape:window-maximized="1"
     inkscape:current-layer="g4064" /><g
     id="g4064"
     inkscape:groupmode="layer"
     inkscape:label="mobile_icon"
     transform="matrix(1.25,0,0,-1.25,0,48.000001)"><g
       id="g3128"
       transform="matrix(1.1622701,0,0,-1.1622701,-716.52644,238.70549)"><path
         inkscape:connector-curvature="0"
         id="rect5764"
         d="m 630.15658,173.74209 a 1.8751875,1.8751875 0 0 0 -0.39062,0.078 1.8751875,1.8751875 0 0 0 -1.48438,1.875 l 0,1.875 -1.64062,0 c -1.25935,1.2e-4 -2.26563,1.0064 -2.26563,2.26575 l 0,21.875 c 0,1.25935 1.00628,2.26562 2.26563,2.26562 l 12.73437,0 c 1.25935,0 2.26563,-1.00627 2.26563,-2.26562 l 0,-21.875 c 0,-1.25935 -1.00628,-2.26563 -2.26563,-2.26563 l -7.34375,0 0,-1.875 a 1.8751875,1.8751875 0 0 0 -1.875,-1.95312 z"
         style="color:#000000;fill:#1494cc;fill-opacity:1;stroke:none;stroke-width:4.9000001;marker:none;visibility:visible;display:inline;overflow:visible;enable-background:accumulate" /><rect
         ry="0.77851743"
         rx="0.77851743"
         y="190.24359"
         x="628.2652"
         height="2.2097321"
         width="2.2097447"
         id="rect5766"
         style="color:#000000;fill:#ffffff;fill-opacity:1;stroke:none;stroke-width:4.9000001;marker:none;visibility:visible;display:inline;overflow:visible;enable-background:accumulate" /><rect
         style="color:#000000;fill:#ffffff;fill-opacity:1;stroke:none;stroke-width:4.9000001;marker:none;visibility:visible;display:inline;overflow:visible;enable-background:accumulate"
         id="rect5768"
         width="2.2097447"
         height="2.2097321"
         x="632.18744"
         y="190.24359"
         rx="0.77851743"
         ry="0.77851743" /><rect
         ry="0.77851743"
         rx="0.77851743"
         y="190.24359"
         x="636.10974"
         height="2.2097321"
         width="2.2097447"
         id="rect5770"
         style="color:#000000;fill:#ffffff;fill-opacity:1;stroke:none;stroke-width:4.9000001;marker:none;visibility:visible;display:inline;overflow:visible;enable-background:accumulate" /><rect
         style="color:#000000;fill:#ffffff;fill-opacity:1;stroke:none;stroke-width:4.9000001;marker:none;visibility:visible;display:inline;overflow:visible;enable-background:accumulate"
         id="rect5772"
         width="2.2097447"
         height="2.2097321"
         x="628.2652"
         y="194.09674"
         rx="0.77851743"
         ry="0.77851743" /><rect
         ry="0.77851743"
         rx="0.77851743"
         y="194.09674"
         x="632.18744"
         height="2.2097321"
         width="2.2097447"
         id="rect5774"
         style="color:#000000;fill:#ffffff;fill-opacity:1;stroke:none;stroke-width:4.9000001;marker:none;visibility:visible;display:inline;overflow:visible;enable-background:accumulate" /><rect
         style="color:#000000;fill:#ffffff;fill-opacity:1;stroke:none;stroke-width:4.9000001;marker:none;visibility:visible;display:inline;overflow:visible;enable-background:accumulate"
         id="rect5776"
         width="2.2097447"
         height="2.2097321"
         x="636.10974"
         y="194.09674"
         rx="0.77851743"
         ry="0.77851743" /><rect
         ry="0.77851743"
         rx="0.77851743"
         y="197.94989"
         x="628.2652"
         height="2.2097321"
         width="2.2097447"
         id="rect5778"
         style="color:#000000;fill:#ffffff;fill-opacity:1;stroke:none;stroke-width:4.9000001;marker:none;visibility:visible;display:inline;overflow:visible;enable-background:accumulate" /><rect
         style="color:#000000;fill:#ffffff;fill-opacity:1;stroke:none;stroke-width:4.9000001;marker:none;visibility:visible;display:inline;overflow:visible;enable-background:accumulate"
         id="rect5780"
         width="2.2097447"
         height="2.2097321"
         x="632.18744"
         y="197.94989"
         rx="0.77851743"
         ry="0.77851743" /><rect
         ry="0.77851743"
         rx="0.77851743"
         y="197.94989"
         x="636.10974"
         height="2.2097321"
         width="2.2097447"
         id="rect5782"
         style="color:#000000;fill:#ffffff;fill-opacity:1;stroke:none;stroke-width:4.9000001;marker:none;visibility:visible;display:inline;overflow:visible;enable-background:accumulate" /><rect
         ry="0.77221805"
         rx="0.77221805"
         y="180.64417"
         x="628.2652"
         height="7.5344272"
         width="10.054999"
         id="rect5784"
         style="color:#000000;fill:#ffffff;fill-opacity:1;stroke:none;stroke-width:4.9000001;marker:none;visibility:visible;display:inline;overflow:visible;enable-background:accumulate" /></g><path
       style="fill:#666666;stroke-width:0.19601838"
       d="M 13.702922,45.666462 C 13.291497,45.519729 12.772126,45.236925 12.548763,45.038006 11.591716,44.185698 11.6087,44.516566 11.6087,26.724634 c 0,-16.577372 0.0028,-16.695109 0.410513,-17.4205814 0.631399,-1.123424 1.367272,-1.463593 3.411845,-1.5771803 l 1.764166,-0.098009 0.09801,-1.9972744 c 0.09096,-1.8536499 0.137298,-2.0382147 0.644375,-2.5666004 0.944818,-0.9845223 2.149927,-1.1421514 3.44266,-0.4503021 0.719239,0.3849251 1.062358,1.3550799 1.163563,3.2899238 l 0.09448,1.8062176 5.903266,0.057027 c 5.875187,0.056756 5.906405,0.059266 6.563169,0.5276805 0.362945,0.2588595 0.824102,0.8322133 1.024792,1.2741195 0.34637,0.7626862 0.365052,1.6292232 0.3681,17.0729912 0.0021,10.454501 -0.06816,16.526487 -0.196475,16.988467 -0.242155,0.871855 -1.283918,1.83159 -2.292003,2.111538 -1.189883,0.330434 -19.357228,0.262268 -20.306235,-0.07619 z m 6.334568,-5.596558 c 0.541657,-0.541657 0.541657,-2.006581 0,-2.548238 -0.50276,-0.50276 -2.056035,-0.543448 -2.581809,-0.06763 -0.475879,0.430664 -0.497814,2.136993 -0.03406,2.649438 0.467217,0.516269 2.086813,0.495483 2.615867,-0.03357 z m 5.771427,-0.04362 c 0.444386,-0.634448 0.396266,-2.021463 -0.08689,-2.504622 -0.50276,-0.50276 -2.056035,-0.543448 -2.581809,-0.06763 -0.475879,0.430664 -0.497814,2.136993 -0.03406,2.649438 0.502696,0.555473 2.29549,0.504274 2.702761,-0.07719 z m 5.684534,0 c 0.444385,-0.634448 0.396265,-2.021463 -0.0869,-2.504622 -0.50276,-0.50276 -2.056035,-0.543448 -2.581809,-0.06763 -0.475879,0.430664 -0.497815,2.136993 -0.03406,2.649438 0.502697,0.555473 2.295492,0.504274 2.702763,-0.07719 z M 19.948391,34.49229 c 0.680055,-0.680055 0.668864,-1.897194 -0.02381,-2.589871 -0.432274,-0.432274 -0.629742,-0.490883 -1.372021,-0.407217 -1.29067,0.145477 -1.482688,0.388299 -1.414884,1.789234 0.05049,1.04323 0.117664,1.219401 0.547597,1.436152 0.801468,0.404063 1.723803,0.311021 2.263121,-0.228298 z m 5.649188,0.07487 c 0.431251,-0.339222 0.516481,-0.563304 0.516481,-1.357902 0,-0.804349 -0.08343,-1.017476 -0.539051,-1.377017 -0.429108,-0.338622 -0.716525,-0.40555 -1.409213,-0.328154 -0.522082,0.05833 -0.972944,0.237789 -1.127105,0.448619 -0.326446,0.446442 -0.334252,2.064238 -0.01192,2.470659 0.51984,0.655454 1.827364,0.728588 2.570808,0.143795 z m 5.684533,0 c 0.43125,-0.339222 0.516481,-0.563304 0.516481,-1.357902 0,-0.804349 -0.08343,-1.017476 -0.539051,-1.377017 -0.429108,-0.338622 -0.716525,-0.40555 -1.409213,-0.328154 -0.522083,0.05833 -0.972944,0.237789 -1.127105,0.448619 -0.326446,0.446442 -0.334252,2.064238 -0.01192,2.470659 0.51984,0.655454 1.827364,0.728588 2.570808,0.143795 z M 20.03749,28.896857 c 0.541657,-0.541658 0.541657,-2.006581 0,-2.548239 -0.50276,-0.50276 -2.056035,-0.543447 -2.581809,-0.06763 -0.475879,0.430664 -0.497814,2.136992 -0.03406,2.649437 0.467217,0.516269 2.086813,0.495484 2.615867,-0.03357 z m 5.684533,0 c 0.275878,-0.275878 0.392037,-0.653394 0.392037,-1.274119 0,-1.199253 -0.476312,-1.666157 -1.699726,-1.666157 -1.256693,0 -1.632587,0.375781 -1.632587,1.632098 0,1.319069 0.35835,1.700215 1.598528,1.700215 0.688354,0 1.057599,-0.107887 1.341748,-0.392037 z m 5.684533,0 c 0.48316,-0.48316 0.53128,-1.870174 0.0869,-2.504623 -0.247693,-0.353631 -0.493896,-0.435653 -1.30769,-0.435653 -1.350893,0 -1.719481,0.349858 -1.719481,1.632098 0,1.319069 0.35835,1.700215 1.598528,1.700215 0.688354,0 1.057598,-0.107887 1.341748,-0.392037 z m 0.03357,-6.20496 c 0.328707,-0.297475 0.358467,-0.723362 0.358467,-5.130047 0,-4.196621 -0.04111,-4.851068 -0.324409,-5.164107 -0.30226,-0.333994 -0.783068,-0.358466 -7.042659,-0.358466 -5.846145,0 -6.758239,0.03998 -7.026282,0.308029 -0.461815,0.461815 -0.461815,9.899155 0,10.360971 0.267983,0.267982 1.177041,0.308029 6.992223,0.308029 5.944635,0 6.723856,-0.03589 7.04266,-0.324409 z"
       id="path4024"
       inkscape:connector-curvature="0"
       transform="matrix(0.8,0,0,-0.8,0,38.400001)" /><path
       style="fill:#666666;stroke-width:0.0490046"
       d="m 36.298613,43.745254 c 0.07605,-0.313519 0.133306,-2.126021 0.167947,-5.316998 l 0.03777,-3.479327 0.0082,4.008192 c 0.0071,3.49575 -0.0018,4.056482 -0.06981,4.385911 -0.04289,0.207746 -0.09954,0.410798 -0.125883,0.451227 -0.03533,0.05421 -0.0401,0.04135 -0.01818,-0.049 z"
       id="path4026"
       inkscape:connector-curvature="0"
       transform="matrix(0.8,0,0,-0.8,0,38.400001)" /><path
       style="fill:#666666;stroke-width:0.0490046"
       d="m 11.802599,44.083802 c -0.349793,-0.7579 -0.323381,0.661583 -0.322436,-17.328825 9.5e-4,-18.1152325 -0.03244,-16.538914 0.367501,-17.3492169 0.378892,-0.7676586 1.010106,-1.3144506 1.861827,-1.6128178 0.385193,-0.1349373 0.411108,-0.1372735 1.592179,-0.1435342 0.660337,-0.0035 1.079326,0.00119 0.931087,0.010416 -1.889328,0.1176232 -2.506368,0.2157273 -3.076534,0.4891423 -0.648897,0.3111696 -1.214178,1.0267307 -1.358714,1.7199274 -0.03946,0.1892772 -0.09552,0.7715852 -0.124574,1.2940182 -0.07891,1.419111 -0.118941,22.391443 -0.05162,27.044823 0.06306,4.359097 0.120219,5.402283 0.328307,5.992069 0.11873,0.336516 0.02924,0.265908 -0.147022,-0.116001 z"
       id="path4028"
       inkscape:connector-curvature="0"
       transform="matrix(0.8,0,0,-0.8,0,38.400001)" /><path
       style="fill:#666666;stroke-width:0.0490046"
       d="m 17.171033,5.9362542 c -0.008,-1.6304586 0.01321,-1.798075 0.299968,-2.3747675 0.199991,-0.4021985 0.690833,-0.9002088 1.101543,-1.1176308 0.422987,-0.2239208 1.188745,-0.4149484 1.507074,-0.3759577 0.344952,0.042251 0.739144,0.1584622 1.019625,0.3005927 0.305913,0.1550176 0.261614,0.2106532 -0.05819,0.073078 -0.560431,-0.2410908 -1.250476,-0.3186821 -1.770014,-0.199027 -0.584938,0.1347174 -1.441801,0.7772002 -1.687653,1.2654147 -0.198342,0.3938704 -0.234576,0.7073248 -0.365897,3.1653215 -0.03643,0.6818925 -0.03979,0.628575 -0.04646,-0.7370243 z"
       id="path4030"
       inkscape:connector-curvature="0"
       transform="matrix(0.8,0,0,-0.8,0,38.400001)" /><path
       style="fill:#666666;stroke-width:0.0490046"
       d="M 36.48321,14.268991 C 36.468885,12.238428 36.397873,10.606382 36.302058,10.105604 36.22398,9.6975269 36.111177,9.4498933 35.810045,9.025499 35.368427,8.4031148 34.855055,8.0320077 34.28898,7.9259494 33.771593,7.8290132 32.124402,7.7817597 28.067367,7.7474681 25.884212,7.7290153 23.767214,7.6979261 23.362926,7.678381 22.958638,7.658836 25.163845,7.645213 28.263385,7.648107 l 5.635529,0.00526 0.391566,0.1383709 c 0.854319,0.3018977 1.483284,0.8471342 1.861874,1.6140188 0.36756,0.7445433 0.37097,0.7816053 0.356046,3.8697453 -0.0096,1.979295 -0.01635,2.246809 -0.02519,0.993486 z"
       id="path4032"
       inkscape:connector-curvature="0"
       transform="matrix(0.8,0,0,-0.8,0,38.400001)" /></g></svg>